<?xml version="1.0" encoding="UTF-8"?>
<svg xmlns="http://www.w3.org/2000/svg" xmlns:xlink="http://www.w3.org/1999/xlink" width="1920" height="1080" viewBox="0 0 1920 1080" role="img" aria-labelledby="title"><title id="title">ButiRonda · explicación · escena 6</title><rect x="0" y="0" width="1920" height="1080" rx="0" fill="#F6F0E3" stroke="none"/><g transform="translate(76 52) scale(0.589041095890411)"><g data-brand-symbol="parelles" transform="translate(0 1) scale(0.5625)"><g fill="#183D35"><rect x="58" y="24" width="108" height="56" rx="11"/><rect x="90" y="176" width="108" height="56" rx="11"/></g><g fill="#C96959"><rect x="176" y="58" width="56" height="108" rx="11"/><rect x="24" y="90" width="56" height="108" rx="11"/></g></g><text x="161" y="98" font-family="Noto Serif" font-size="79" font-weight="700" fill="#183D35" text-anchor="start" letter-spacing="-2.765">ButiRonda</text></g><path d="M80 181h1760" stroke="#D9CFBC"/><text x="80" y="382" font-family="Noto Serif" font-size="84" font-weight="700" fill="#183D35" text-anchor="start" letter-spacing="-2.2">La pròxima ronda</text><text x="80" y="493" font-family="Noto Serif" font-size="84" font-weight="700" fill="#183D35" text-anchor="start" letter-spacing="-2.2">comença aquí.</text><text x="84" y="678" font-family="Noto Sans" font-size="28" font-weight="400" fill="#183D35" text-anchor="start" letter-spacing="0">Organitza el teu campionat amb ButiRonda.</text><text x="84" y="728" font-family="Noto Sans" font-size="28" font-weight="400" fill="#183D35" text-anchor="start" letter-spacing="0">Les dades es desen en aquest navegador.</text><g data-brand-symbol="parelles" transform="translate(1320 325) scale(1.875)"><g fill="#183D35"><rect x="58" y="24" width="108" height="56" rx="11"/><rect x="90" y="176" width="108" height="56" rx="11"/></g><g fill="#C96959"><rect x="176" y="58" width="56" height="108" rx="11"/><rect x="24" y="90" width="56" height="108" rx="11"/></g></g><text x="84" y="882" font-family="Noto Sans" font-size="23" font-weight="400" fill="#183D35" text-anchor="start" letter-spacing="0">Gestor de campionats de Butifarra</text><path d="M80 993h1760" stroke="#D9CFBC"/><rect x="80" y="1032" width="1760" height="5" rx="2" fill="#C96959" stroke="none"/></svg>
