<?xml version="1.0" encoding="UTF-8"?>
<svg xmlns="http://www.w3.org/2000/svg" xmlns:xlink="http://www.w3.org/1999/xlink" width="1200" height="630" viewBox="0 0 1200 630" role="img" aria-labelledby="title"><title id="title">ButiRonda · imagen de enlace</title><rect x="0" y="0" width="1200" height="630" rx="0" fill="#F6F0E3" stroke="none"/><g transform="translate(62 42) scale(0.5273972602739726)"><g data-brand-symbol="parelles" transform="translate(0 1) scale(0.5625)"><g fill="#183D35"><rect x="58" y="24" width="108" height="56" rx="11"/><rect x="90" y="176" width="108" height="56" rx="11"/></g><g fill="#C96959"><rect x="176" y="58" width="56" height="108" rx="11"/><rect x="24" y="90" width="56" height="108" rx="11"/></g></g><text x="161" y="98" font-family="Noto Serif" font-size="79" font-weight="700" fill="#183D35" text-anchor="start" letter-spacing="-2.765">ButiRonda</text></g><text x="64" y="280" font-family="Noto Serif" font-size="57" font-weight="700" fill="#183D35" text-anchor="start" letter-spacing="-1.3">La próxima ronda</text><text x="64" y="358" font-family="Noto Serif" font-size="57" font-weight="700" fill="#183D35" text-anchor="start" letter-spacing="-1.3">empieza aquí.</text><text x="64" y="497" font-family="Noto Sans" font-size="21" font-weight="400" fill="#183D35" text-anchor="start" letter-spacing="0">Gestor de torneos de Butifarra</text><g data-brand-symbol="parelles" transform="translate(810 174) scale(1.3046875)"><g fill="#183D35"><rect x="58" y="24" width="108" height="56" rx="11"/><rect x="90" y="176" width="108" height="56" rx="11"/></g><g fill="#C96959"><rect x="176" y="58" width="56" height="108" rx="11"/><rect x="24" y="90" width="56" height="108" rx="11"/></g></g><path d="M64 548h1072" stroke="#D9CFBC"/></svg>
